<?xml version="1.0" encoding="utf-8"?>
<!-- Generator: Adobe Illustrator 22.1.0, SVG Export Plug-In . SVG Version: 6.00 Build 0)  -->
<svg version="1.1" id="Слой_1" xmlns="http://www.w3.org/2000/svg" xmlns:xlink="http://www.w3.org/1999/xlink" x="0px" y="0px"
	 viewBox="0 0 400 400" style="enable-background:new 0 0 400 400;" xml:space="preserve">
<style type="text/css">
	.st0{fill:#FFFFFF;stroke:#00C896;stroke-width:10;stroke-miterlimit:10;}
	.st1{fill:none;stroke:#00C896;stroke-width:10;stroke-miterlimit:10;}
	.st2{fill:#F2ECFF;stroke:#F2ECFF;stroke-width:10;stroke-miterlimit:10;}
	.st3{fill:none;stroke:#F2ECFF;stroke-width:40;stroke-miterlimit:10;}
	.st4{fill:none;stroke:#F2ECFF;stroke-width:20;stroke-miterlimit:10;}
	.st5{fill:none;stroke:#F2ECFF;stroke-width:30;stroke-miterlimit:10;}
</style>
<g>
	<path class="st0" d="M79.1,300.6c0.2,0.8,0.4,1.7,0.7,2.5h240.4l16.3-59.4H64.1C69.5,264.2,74.7,283.7,79.1,300.6z"/>
	<path class="st0" d="M94.6,359.3h210.3l15.4-56.1H79.8C88.6,336.4,94.6,359.3,94.6,359.3z"/>
	<path class="st0" d="M32.5,125.9c4.9,18.2,10.4,38.5,16,59.4h304l16.3-59.4H32.5z"/>
	<path class="st0" d="M64.1,243.7h272.5l16-58.3h-304C53.7,204.8,59,224.6,64.1,243.7z"/>
	<path class="st0" d="M388.5,54.4H12c1.1,1.6,6.5,20.5,14.1,48.1c2,7.3,4.2,15.1,6.4,23.5h336.3L388.5,54.4z"/>
</g>
<line class="st1" x1="94.6" y1="125.9" x2="150.7" y2="361.5"/>
<line class="st1" x1="200.3" y1="125.9" x2="200.3" y2="359.3"/>
<line class="st1" x1="305.9" y1="125.9" x2="250.9" y2="359.3"/>
</svg>
